<svg width="25" height="25" viewBox="0 0 25 25" fill="currentColor" xmlns="http://www.w3.org/2000/svg">
  <g id="currency_exchange">
    <mask id="mask0_3_182" style="mask-type:alpha" maskUnits="userSpaceOnUse" x="0" y="0" width="25"
      height="25">
      <rect id="Bounding box" x="0.5" y="0.184631" width="24" height="24" fill="currentColor" />
    </mask>
    <g mask="url(#mask0_3_182)">
      <path id="currency_exchange_2"
        d="M12.5 23.1846C10.6333 23.1846 8.91667 22.7596 7.35 21.9096C5.78333 21.0596 4.5 19.9263 3.5 18.5096V21.1846H1.5V15.1846H7.5V17.1846H5.025C5.825 18.3846 6.87917 19.3513 8.1875 20.0846C9.49583 20.818 10.9333 21.1846 12.5 21.1846C13.75 21.1846 14.9208 20.9471 16.0125 20.4721C17.1042 19.9971 18.0542 19.3555 18.8625 18.5471C19.6708 17.7388 20.3125 16.7888 20.7875 15.6971C21.2625 14.6055 21.5 13.4346 21.5 12.1846H23.5C23.5 13.7013 23.2125 15.1263 22.6375 16.4596C22.0625 17.793 21.275 18.9596 20.275 19.9596C19.275 20.9596 18.1083 21.7471 16.775 22.3221C15.4417 22.8971 14.0167 23.1846 12.5 23.1846ZM11.6 19.1846V17.8846C10.8167 17.7013 10.1792 17.3638 9.6875 16.8721C9.19583 16.3805 8.83333 15.7346 8.6 14.9346L10.25 14.2846C10.45 14.968 10.7625 15.4805 11.1875 15.8221C11.6125 16.1638 12.1 16.3346 12.65 16.3346C13.2 16.3346 13.6708 16.2055 14.0625 15.9471C14.4542 15.6888 14.65 15.2846 14.65 14.7346C14.65 14.2513 14.4458 13.8596 14.0375 13.5596C13.6292 13.2596 12.9 12.918 11.85 12.5346C10.8667 12.1846 10.1458 11.768 9.6875 11.2846C9.22917 10.8013 9 10.168 9 9.38463C9 8.7013 9.2375 8.08046 9.7125 7.52213C10.1875 6.9638 10.8333 6.6013 11.65 6.43463V5.18463H13.4V6.43463C14 6.48463 14.5458 6.7263 15.0375 7.15963C15.5292 7.59296 15.8667 8.1013 16.05 8.68463L14.45 9.33463C14.3167 8.9513 14.1 8.63046 13.8 8.37213C13.5 8.1138 13.0833 7.98463 12.55 7.98463C11.9667 7.98463 11.5208 8.10963 11.2125 8.35963C10.9042 8.60963 10.75 8.9513 10.75 9.38463C10.75 9.81796 10.9417 10.1596 11.325 10.4096C11.7083 10.6596 12.4 10.9513 13.4 11.2846C14.6 11.718 15.4 12.2263 15.8 12.8096C16.2 13.393 16.4 14.0346 16.4 14.7346C16.4 15.218 16.3167 15.643 16.15 16.0096C15.9833 16.3763 15.7625 16.6888 15.4875 16.9471C15.2125 17.2055 14.8917 17.4138 14.525 17.5721C14.1583 17.7305 13.7667 17.8513 13.35 17.9346V19.1846H11.6ZM1.5 12.1846C1.5 10.668 1.7875 9.24296 2.3625 7.90963C2.9375 6.5763 3.725 5.40963 4.725 4.40963C5.725 3.40963 6.89167 2.62213 8.225 2.04713C9.55833 1.47213 10.9833 1.18463 12.5 1.18463C14.3667 1.18463 16.0833 1.60963 17.65 2.45963C19.2167 3.30963 20.5 4.44296 21.5 5.85963V3.18463H23.5V9.18463H17.5V7.18463H19.975C19.175 5.98463 18.1208 5.01796 16.8125 4.28463C15.5042 3.5513 14.0667 3.18463 12.5 3.18463C11.25 3.18463 10.0792 3.42213 8.9875 3.89713C7.89583 4.37213 6.94583 5.0138 6.1375 5.82213C5.32917 6.63047 4.6875 7.58046 4.2125 8.67213C3.7375 9.7638 3.5 10.9346 3.5 12.1846H1.5Z"
        fill="currentColor" />
    </g>
  </g>
</svg>