<svg width="24" height="25" viewBox="0 0 24 25" fill="none" xmlns="http://www.w3.org/2000/svg">
  <g id="flowsheet">
    <mask id="mask0_3_191" style="mask-type:alpha" maskUnits="userSpaceOnUse" x="0" y="0" width="24"
      height="25">
      <rect id="Bounding box" y="0.184631" width="24" height="24" fill="currentColor" />
    </mask>
    <g mask="url(#mask0_3_191)">
      <path id="flowsheet_2"
        d="M14 21.1846C14.2833 21.1846 14.5208 21.0888 14.7125 20.8971C14.9042 20.7055 15 20.468 15 20.1846C15 19.9013 14.9042 19.6638 14.7125 19.4721C14.5208 19.2805 14.2833 19.1846 14 19.1846C13.7167 19.1846 13.4792 19.2805 13.2875 19.4721C13.0958 19.6638 13 19.9013 13 20.1846C13 20.468 13.0958 20.7055 13.2875 20.8971C13.4792 21.0888 13.7167 21.1846 14 21.1846ZM20 11.1846C20.2833 11.1846 20.5208 11.0888 20.7125 10.8971C20.9042 10.7055 21 10.468 21 10.1846C21 9.9013 20.9042 9.6638 20.7125 9.47213C20.5208 9.28046 20.2833 9.18463 20 9.18463C19.7167 9.18463 19.4792 9.28046 19.2875 9.47213C19.0958 9.6638 19 9.9013 19 10.1846C19 10.468 19.0958 10.7055 19.2875 10.8971C19.4792 11.0888 19.7167 11.1846 20 11.1846ZM6 11.1846H11V9.18463H6V11.1846ZM6 15.1846H11V13.1846H6V15.1846ZM4 20.1846C3.45 20.1846 2.97917 19.9888 2.5875 19.5971C2.19583 19.2055 2 18.7346 2 18.1846V6.18463C2 5.63463 2.19583 5.1638 2.5875 4.77213C2.97917 4.38046 3.45 4.18463 4 4.18463H20C20.55 4.18463 21.0208 4.38046 21.4125 4.77213C21.8042 5.1638 22 5.63463 22 6.18463H4V18.1846H9V20.1846H4ZM14 23.1846C13.1667 23.1846 12.4583 22.893 11.875 22.3096C11.2917 21.7263 11 21.018 11 20.1846C11 19.5346 11.1875 18.9513 11.5625 18.4346C11.9375 17.918 12.4167 17.5596 13 17.3596V14.1846H19V13.0096C18.4167 12.8096 17.9375 12.4513 17.5625 11.9346C17.1875 11.418 17 10.8346 17 10.1846C17 9.3513 17.2917 8.64296 17.875 8.05963C18.4583 7.4763 19.1667 7.18463 20 7.18463C20.8333 7.18463 21.5417 7.4763 22.125 8.05963C22.7083 8.64296 23 9.3513 23 10.1846C23 10.8346 22.8125 11.418 22.4375 11.9346C22.0625 12.4513 21.5833 12.8096 21 13.0096V16.1846H15V17.3596C15.5833 17.5596 16.0625 17.918 16.4375 18.4346C16.8125 18.9513 17 19.5346 17 20.1846C17 21.018 16.7083 21.7263 16.125 22.3096C15.5417 22.893 14.8333 23.1846 14 23.1846Z"
        fill="currentColor" />
    </g>
  </g>
</svg>