<svg width="25" height="25" viewBox="0 0 25 25" fill="currentColor" xmlns="http://www.w3.org/2000/svg">
  <mask id="mask0_3_146" style="mask-type:alpha" maskUnits="userSpaceOnUse" x="0" y="0" width="25"
    height="25">
    <rect x="0.5" y="0.299927" width="24" height="24" fill="currentColor" />
  </mask>
  <g mask="url(#mask0_3_146)">
    <path
      d="M6.5 14.2999C6.5 15.1666 6.675 15.9874 7.025 16.7624C7.375 17.5374 7.875 18.2166 8.525 18.7999C8.50833 18.7166 8.5 18.6416 8.5 18.5749V18.3499C8.5 17.8166 8.6 17.3166 8.8 16.8499C9 16.3833 9.29167 15.9583 9.675 15.5749L12.5 12.7999L15.325 15.5749C15.7083 15.9583 16 16.3833 16.2 16.8499C16.4 17.3166 16.5 17.8166 16.5 18.3499V18.5749C16.5 18.6416 16.4917 18.7166 16.475 18.7999C17.125 18.2166 17.625 17.5374 17.975 16.7624C18.325 15.9874 18.5 15.1666 18.5 14.2999C18.5 13.4666 18.3458 12.6791 18.0375 11.9374C17.7292 11.1958 17.2833 10.5333 16.7 9.94993C16.3667 10.1666 16.0167 10.3291 15.65 10.4374C15.2833 10.5458 14.9083 10.5999 14.525 10.5999C13.4917 10.5999 12.5958 10.2583 11.8375 9.57493C11.0792 8.89159 10.6417 8.04993 10.525 7.04993C9.875 7.59993 9.3 8.17076 8.8 8.76243C8.3 9.35409 7.87917 9.95409 7.5375 10.5624C7.19583 11.1708 6.9375 11.7916 6.7625 12.4249C6.5875 13.0583 6.5 13.6833 6.5 14.2999ZM12.5 15.5999L11.075 16.9999C10.8917 17.1833 10.75 17.3916 10.65 17.6249C10.55 17.8583 10.5 18.0999 10.5 18.3499C10.5 18.8833 10.6958 19.3416 11.0875 19.7249C11.4792 20.1083 11.95 20.2999 12.5 20.2999C13.05 20.2999 13.5208 20.1083 13.9125 19.7249C14.3042 19.3416 14.5 18.8833 14.5 18.3499C14.5 18.0833 14.45 17.8374 14.35 17.6124C14.25 17.3874 14.1083 17.1833 13.925 16.9999L12.5 15.5999ZM12.5 3.29993V6.59993C12.5 7.16659 12.6958 7.64159 13.0875 8.02493C13.4792 8.40826 13.9583 8.59993 14.525 8.59993C14.825 8.59993 15.1042 8.53743 15.3625 8.41243C15.6208 8.28743 15.85 8.09993 16.05 7.84993L16.5 7.29993C17.7333 7.99993 18.7083 8.97493 19.425 10.2249C20.1417 11.4749 20.5 12.8333 20.5 14.2999C20.5 16.5333 19.725 18.4249 18.175 19.9749C16.625 21.5249 14.7333 22.2999 12.5 22.2999C10.2667 22.2999 8.375 21.5249 6.825 19.9749C5.275 18.4249 4.5 16.5333 4.5 14.2999C4.5 12.1499 5.22083 10.1083 6.6625 8.17493C8.10417 6.24159 10.05 4.61659 12.5 3.29993Z"
      fill="currentColor" />
  </g>
</svg>