<svg width="24" height="25" viewBox="0 0 24 25" fill="currentColor"
  xmlns="http://www.w3.org/2000/svg">
  <g id="sports_handball">
    <mask id="mask0_3_164" style="mask-type:alpha" maskUnits="userSpaceOnUse" x="0" y="0" width="24"
      height="25">
      <rect id="Bounding box" y="0.299988" width="24" height="24" fill="currentColor" />
    </mask>
    <g mask="url(#mask0_3_164)">
      <path id="sports_handball_2"
        d="M9.2 24.2L7.45 23.2L10.45 18L8.75 17L7.25 19.6L5.5 18.6L10.65 9.69999C10.0167 9.04999 9.54167 8.30832 9.225 7.47499C8.90833 6.64165 8.75 5.78332 8.75 4.89999C8.75 4.29999 8.825 3.70415 8.975 3.11249C9.125 2.52082 9.36667 1.94999 9.7 1.39999L11.4 2.39999C11.1667 2.78332 11 3.17915 10.9 3.58749C10.8 3.99582 10.75 4.41665 10.75 4.84999C10.75 5.73332 10.9667 6.56249 11.4 7.33749C11.8333 8.11249 12.45 8.73332 13.25 9.19999L15.5 10.5C16.5333 11.1 17.2917 11.9625 17.775 13.0875C18.2583 14.2125 18.5 15.2667 18.5 16.25C18.5 16.8833 18.4167 17.5 18.25 18.1C18.0833 18.7 17.85 19.2667 17.55 19.8L15.8 18.8C16.0333 18.4 16.2 17.9917 16.3 17.575C16.4 17.1583 16.45 16.7333 16.45 16.3C16.45 15.7667 16.375 15.25 16.225 14.75C16.075 14.25 15.8333 13.7833 15.5 13.35L9.2 24.2ZM16 9.29999C15.45 9.29999 14.9792 9.10415 14.5875 8.71249C14.1958 8.32082 14 7.84999 14 7.29999C14 6.74999 14.1958 6.27915 14.5875 5.88749C14.9792 5.49582 15.45 5.29999 16 5.29999C16.55 5.29999 17.0208 5.49582 17.4125 5.88749C17.8042 6.27915 18 6.74999 18 7.29999C18 7.84999 17.8042 8.32082 17.4125 8.71249C17.0208 9.10415 16.55 9.29999 16 9.29999ZM13.5 4.29999C13.0667 4.29999 12.7083 4.14999 12.425 3.84999C12.1417 3.54999 12 3.19999 12 2.79999C12 2.36665 12.15 2.00832 12.45 1.72499C12.75 1.44165 13.1 1.29999 13.5 1.29999C13.9333 1.29999 14.2917 1.44999 14.575 1.74999C14.8583 2.04999 15 2.39999 15 2.79999C15 3.23332 14.85 3.59165 14.55 3.87499C14.25 4.15832 13.9 4.29999 13.5 4.29999Z"
        fill="currentColor" />
    </g>
  </g>
</svg>