<svg width="24" height="25" viewBox="0 0 24 25" fill="currentColor" xmlns="http://www.w3.org/2000/svg">
  <g id="volunteer_activism">
    <mask id="mask0_3_200" style="mask-type:alpha" maskUnits="userSpaceOnUse" x="0" y="0" width="24"
      height="25">
      <rect id="Bounding box" y="0.184631" width="24" height="24" fill="currentColor" />
    </mask>
    <g mask="url(#mask0_3_200)">
      <path id="volunteer_activism_2"
        d="M16 13.1846C15.2333 12.4846 14.4875 11.7971 13.7625 11.1221C13.0375 10.4471 12.3958 9.78463 11.8375 9.13463C11.2792 8.48463 10.8333 7.85546 10.5 7.24713C10.1667 6.6388 10 6.0513 10 5.48463C10 4.5513 10.3167 3.76796 10.95 3.13463C11.5833 2.5013 12.3667 2.18463 13.3 2.18463C13.8333 2.18463 14.3333 2.29713 14.8 2.52213C15.2667 2.74713 15.6667 3.0513 16 3.43463C16.3333 3.0513 16.7333 2.74713 17.2 2.52213C17.6667 2.29713 18.1667 2.18463 18.7 2.18463C19.6333 2.18463 20.4167 2.5013 21.05 3.13463C21.6833 3.76796 22 4.5513 22 5.48463C22 6.0513 21.8333 6.6388 21.5 7.24713C21.1667 7.85546 20.7208 8.48463 20.1625 9.13463C19.6042 9.78463 18.9667 10.4471 18.25 11.1221C17.5333 11.7971 16.7833 12.4846 16 13.1846ZM16 10.4846C16.9833 9.5513 17.8958 8.62213 18.7375 7.69713C19.5792 6.77213 20 6.03463 20 5.48463C20 5.1013 19.8792 4.7888 19.6375 4.54713C19.3958 4.30546 19.0833 4.18463 18.7 4.18463C18.4667 4.18463 18.2458 4.23046 18.0375 4.32213C17.8292 4.4138 17.65 4.5513 17.5 4.73463L16 6.53463L14.5 4.73463C14.35 4.5513 14.1708 4.4138 13.9625 4.32213C13.7542 4.23046 13.5333 4.18463 13.3 4.18463C12.9167 4.18463 12.6042 4.30546 12.3625 4.54713C12.1208 4.7888 12 5.1013 12 5.48463C12 6.03463 12.4208 6.77213 13.2625 7.69713C14.1042 8.62213 15.0167 9.5513 16 10.4846ZM14 22.6846L7 20.7346V22.1846H1V11.1846H8.95L15.15 13.4846C15.7 13.6846 16.1458 14.0346 16.4875 14.5346C16.8292 15.0346 17 15.5846 17 16.1846H19C19.8333 16.1846 20.5417 16.4596 21.125 17.0096C21.7083 17.5596 22 18.2846 22 19.1846V20.1846L14 22.6846ZM3 20.1846H5V13.1846H3V20.1846ZM13.95 20.5846L19.9 18.7346C19.85 18.5513 19.7375 18.4138 19.5625 18.3221C19.3875 18.2305 19.2 18.1846 19 18.1846H14.2C13.6833 18.1846 13.2167 18.1513 12.8 18.0846C12.3833 18.018 11.9333 17.9013 11.45 17.7346L9.725 17.1346L10.3 15.2346L12.3 15.8846C12.6 15.9846 12.95 16.0596 13.35 16.1096C13.75 16.1596 14.3 16.1846 15 16.1846C15 16.0013 14.9458 15.8263 14.8375 15.6596C14.7292 15.493 14.6 15.3846 14.45 15.3346L8.6 13.1846H7V18.6846L13.95 20.5846Z"
        fill="currentColor" />
    </g>
  </g>
</svg>